# xmcd CD database file
#
# Track frame offsets:
#	150
#	22252
#	40524
#	60936
#	79727
#	88353
#	113732
#	132558
#	154052
#	172982
#	190119
#
# Disc length: 2866 seconds
#
# Revision: 2
# Processed by: cddbd v1.5.1PL2 Copyright (c) Steve Scherf et al.
# Submitted via: CDex 1.51
#
DISCID=880b300b
DTITLE=Bronco Bullfrog - The Sidelong Glances Of A Pigeon Kicker
DYEAR=1900
DGENRE=
TTITLE0=Banaby Slade
TTITLE1=Octopus
TTITLE2=Tea Abd Sympathy
TTITLE3=Look At Me
TTITLE4=Stig's Not Dead
TTITLE5=Sunday
TTITLE6=Wally's Dream
TTITLE7=Withc's Garbage
TTITLE8=I'm Not Getting Trough
TTITLE9=Last Chance To Smile
TTITLE10=Honeybus
EXTD=
EXTT0=
EXTT1=
EXTT2=
EXTT3=
EXTT4=
EXTT5=
EXTT6=
EXTT7=
EXTT8=
EXTT9=
EXTT10=
PLAYORDER=
